<svg width="16" height="22" viewBox="0 0 16 22" fill="none" xmlns="http://www.w3.org/2000/svg">
<path d="M2.29688 18.5278H5.38457V20.5019C5.38457 20.6077 5.25573 20.6795 5.13873 20.639L3.90884 20.2122C3.86523 20.1971 3.81616 20.1971 3.77255 20.2122L2.54271 20.639C2.42571 20.6796 2.29688 20.6077 2.29688 20.5019V18.5278Z" fill="#00969B"/>
<path d="M5.20759 21.1867C5.12434 21.1867 5.04233 21.1729 4.96368 21.1456L3.84125 20.7561L2.71888 21.1456C2.64018 21.1728 2.55817 21.1867 2.47497 21.1867C2.08165 21.1867 1.76172 20.8797 1.76172 20.5024V17.9927H5.92084V20.5024C5.92084 20.8797 5.60086 21.1867 5.20759 21.1867ZM3.84125 19.6656C3.92472 19.6656 4.00674 19.6794 4.08511 19.7066L4.84942 19.9718V19.0641H2.83315V19.9718L3.5975 19.7066C3.67583 19.6794 3.75784 19.6656 3.84125 19.6656Z" fill="#1F2C47"/>
<path d="M13.3131 19.0273H2.43806C1.10879 19.0273 0.0273438 17.9458 0.0273438 16.6166V3.2237C0.0273438 1.89443 1.10879 0.812988 2.43806 0.812988H13.3131C14.2583 0.812988 15.0273 1.58201 15.0273 2.52727V17.313C15.0273 18.2583 14.2583 19.0273 13.3131 19.0273ZM2.43806 1.88442C1.69958 1.88442 1.09877 2.48522 1.09877 3.2237V16.6166C1.09877 17.355 1.69958 17.9558 2.43806 17.9558H13.3131C13.6675 17.9558 13.9559 17.6675 13.9559 17.313V2.52727C13.9559 2.17279 13.6675 1.88442 13.3131 1.88442H2.43806Z" fill="#1F2C47"/>
<path d="M11.032 9.38421H4.02409C3.65702 9.38421 3.35938 9.08662 3.35938 8.71949V5.70964C3.35938 5.34256 3.65696 5.04492 4.02409 5.04492H11.032C11.3991 5.04492 11.6968 5.34251 11.6968 5.70964V8.71955C11.6968 9.08662 11.3992 9.38421 11.032 9.38421Z" fill="#00969B"/>
<path d="M11.0316 9.91999H4.02367C3.3618 9.91999 2.82324 9.38149 2.82324 8.71962V5.70971C2.82319 5.04778 3.36174 4.50928 4.02367 4.50928H11.0316C11.6934 4.50928 12.232 5.04778 12.232 5.70971V8.71962C12.232 9.38149 11.6934 9.91999 11.0316 9.91999ZM4.02367 5.58071C3.95253 5.58071 3.89467 5.63856 3.89467 5.70971V8.71962C3.89467 8.79071 3.95253 8.84856 4.02367 8.84856H11.0316C11.1027 8.84856 11.1606 8.79071 11.1606 8.71962V5.70971C11.1606 5.63856 11.1027 5.58071 11.0316 5.58071H4.02367Z" fill="#1F2C47"/>
<path d="M9.60446 16.0633H5.44994C4.90785 16.0633 4.4668 15.6222 4.4668 15.0801V13.7785H5.53823V14.9918H9.51612V13.8668H6.56289V12.7954H9.6044C10.1465 12.7954 10.5875 13.2364 10.5875 13.7785V15.0801C10.5876 15.6222 10.1465 16.0633 9.60446 16.0633Z" fill="#1F2C47"/>
</svg>