<svg width="25" height="24" viewBox="0 0 25 24" fill="none" xmlns="http://www.w3.org/2000/svg">
<path d="M15.3559 12L16.7701 13.4142L19.5985 10.5858C21.1606 9.02365 21.1606 6.49099 19.5985 4.9289C18.0365 3.3668 15.5038 3.3668 13.9417 4.9289L11.1133 7.75732L12.5275 9.17154L15.3559 6.34311C16.137 5.56206 17.4033 5.56206 18.1843 6.34311C18.9654 7.12416 18.9654 8.39049 18.1843 9.17154L15.3559 12Z" fill="black"/>
<path d="M12.5278 14.8286L13.942 16.2428L11.1136 19.0712C9.55149 20.6333 7.01883 20.6333 5.45673 19.0712C3.89463 17.5091 3.89463 14.9765 5.45673 13.4144L8.28516 10.5859L9.69937 12.0001L6.87094 14.8286C6.08989 15.6096 6.08989 16.8759 6.87094 17.657C7.65199 18.438 8.91832 18.438 9.69937 17.657L12.5278 14.8286Z" fill="black"/>
<path d="M15.356 10.5855C15.7465 10.195 15.7465 9.56184 15.356 9.17132C14.9654 8.78079 14.3323 8.78079 13.9417 9.17132L9.69915 13.4139C9.30862 13.8044 9.30862 14.4376 9.69915 14.8281C10.0897 15.2186 10.7228 15.2186 11.1133 14.8281L15.356 10.5855Z" fill="black"/>
</svg>