<svg width="18" height="19" viewBox="0 0 18 19" fill="none" xmlns="http://www.w3.org/2000/svg">
<path d="M9 5C9.41422 5 9.75 5.33579 9.75 5.75V10.25C9.75 10.6642 9.41422 11 9 11C8.58578 11 8.25 10.6642 8.25 10.25V5.75C8.25 5.33579 8.58578 5 9 5Z" fill="#FF0000"/>
<path d="M9 12.5C8.58578 12.5 8.25 12.8358 8.25 13.25C8.25 13.6642 8.58578 14 9 14C9.41422 14 9.75 13.6642 9.75 13.25C9.75 12.8358 9.41422 12.5 9 12.5Z" fill="#FF0000"/>
<path fill-rule="evenodd" clip-rule="evenodd" d="M9 2C4.85786 2 1.5 5.35786 1.5 9.5C1.5 13.6421 4.85786 17 9 17C13.1421 17 16.5 13.6421 16.5 9.5C16.5 5.35786 13.1421 2 9 2ZM3 9.5C3 12.8137 5.68629 15.5 9 15.5C12.3137 15.5 15 12.8137 15 9.5C15 6.18629 12.3137 3.5 9 3.5C5.68629 3.5 3 6.18629 3 9.5Z" fill="#FF0000"/>
</svg>