<svg width="48" height="48" viewBox="0 0 48 48" fill="none" xmlns="http://www.w3.org/2000/svg">
<path d="M24 48C37.2548 48 48 37.2548 48 24C48 10.7452 37.2548 0 24 0C10.7452 0 0 10.7452 0 24C0 37.2548 10.7452 48 24 48Z" fill="#4E71A8"/>
<path d="M29.8996 19.4998H25.8996V16.8998C25.8996 15.8998 26.5996 15.6998 26.9996 15.6998C27.4996 15.6998 29.7996 15.6998 29.7996 15.6998V11.2998H25.8996C21.4996 11.2998 20.5996 14.5998 20.5996 16.5998V19.4998H18.0996V23.9998H20.5996C20.5996 29.7998 20.5996 36.6998 20.5996 36.6998H25.8996C25.8996 36.6998 25.8996 29.6998 25.8996 23.9998H29.4996L29.8996 19.4998Z" fill="white"/>
</svg>