<svg width="48" height="48" viewBox="0 0 48 48" fill="none" xmlns="http://www.w3.org/2000/svg">
<rect width="48" height="48" rx="24" fill="#FAE100"/>
<path d="M24 12C16.5441 12 10.5 16.7656 10.5 22.6442C10.5 26.4449 13.0268 29.7798 16.8279 31.6629C16.6211 32.376 15.499 36.2508 15.4544 36.5552C15.4544 36.5552 15.4275 36.7839 15.5756 36.8712C15.7237 36.9584 15.8979 36.8906 15.8979 36.8906C16.3227 36.8313 20.8232 33.67 21.6022 33.121C22.3804 33.2312 23.1817 33.2885 24 33.2885C31.4559 33.2885 37.5 28.523 37.5 22.6442C37.5 16.7656 31.4559 12 24 12Z" fill="black"/>
<path d="M16.7203 25.8155C16.2908 25.8155 15.9415 25.4819 15.9415 25.0717V20.4447H14.7262C14.3047 20.4447 13.9619 20.1025 13.9619 19.6821C13.9619 19.2616 14.3049 18.9194 14.7262 18.9194H18.7144C19.1359 18.9194 19.4787 19.2616 19.4787 19.6821C19.4787 20.1025 19.1358 20.4447 18.7144 20.4447H17.4992V25.0717C17.4992 25.4819 17.1499 25.8155 16.7203 25.8155ZM23.5498 25.8053C23.225 25.8053 22.9765 25.6735 22.9016 25.4614L22.516 24.4517L20.141 24.4516L19.7551 25.4619C19.6805 25.6736 19.4321 25.8053 19.1074 25.8053C18.9365 25.8055 18.7677 25.7689 18.6123 25.6979C18.3976 25.5988 18.1912 25.3265 18.4277 24.5919L20.2907 19.6883C20.4219 19.3153 20.8206 18.9311 21.3279 18.9196C21.8366 18.931 22.2352 19.3153 22.3667 19.6891L24.2289 24.5905C24.466 25.3267 24.2596 25.5992 24.0449 25.698C23.8894 25.7689 23.7206 25.8055 23.5498 25.8053C23.5498 25.8053 23.5496 25.8053 23.5498 25.8053ZM22.1064 23.0721L21.3285 20.8621L20.5506 23.0721H22.1064ZM25.4823 25.7019C25.0707 25.7019 24.736 25.3815 24.736 24.9879V19.6983C24.736 19.2687 25.0927 18.9194 25.531 18.9194C25.9694 18.9194 26.3261 19.2687 26.3261 19.6983V24.274H27.9811C28.3928 24.274 28.7275 24.5944 28.7275 24.9879C28.7275 25.3815 28.3928 25.7019 27.9811 25.7019H25.4823ZM29.8094 25.8053C29.3798 25.8053 29.0305 25.456 29.0305 25.0265V19.6983C29.0305 19.2687 29.3798 18.9194 29.8094 18.9194C30.2389 18.9194 30.5882 19.2687 30.5882 19.6983V21.3723L32.7612 19.1993C32.8729 19.0875 33.0265 19.026 33.1932 19.026C33.3876 19.026 33.5829 19.1099 33.7292 19.256C33.8656 19.3923 33.947 19.5677 33.9581 19.7498C33.9694 19.9335 33.9083 20.1019 33.7863 20.224L32.0114 21.9986L33.9285 24.5384C33.9904 24.6199 34.0355 24.7129 34.0612 24.8119C34.0869 24.911 34.0926 25.0141 34.0781 25.1154C34.0642 25.2168 34.0303 25.3144 33.9785 25.4025C33.9266 25.4907 33.8577 25.5677 33.7759 25.6291C33.6412 25.7314 33.4766 25.7867 33.3074 25.7863C33.1867 25.7868 33.0676 25.7591 32.9596 25.7053C32.8515 25.6516 32.7576 25.5733 32.6852 25.4767L30.8587 23.0565L30.5885 23.3268V25.0261C30.5882 25.2327 30.5061 25.4307 30.36 25.5768C30.214 25.7229 30.0159 25.8051 29.8094 25.8053Z" fill="#FFE812"/>
</svg>