<svg width="33" height="40" viewBox="0 0 33 40" fill="none" xmlns="http://www.w3.org/2000/svg">
<path d="M26.5921 3.55414L24.8678 5.27664L22.8125 4.07414L25.3878 2.35156L26.5921 3.55414Z" fill="#084B63"/>
<path d="M23.6725 0.638672L25.3874 2.35187L23.2493 4.4882L21.9482 2.36125L23.6725 0.638672Z" fill="#146A8A"/>
<path d="M24.8678 5.27672L20.0636 10.0759L17.1572 8.61719L23.6636 4.07422L24.8678 5.27672Z" fill="#084B63"/>
<path d="M21.9478 2.36084L23.6627 4.07404L18.3465 9.3842L17.1436 7.15912L21.9478 2.36084Z" fill="#146A8A"/>
<path d="M16.8046 16.3105H13.4307V20.5225H16.8046V16.3105Z" fill="#146A8A"/>
<path d="M8.05869 17.0068L11.9199 15.3232L10.5713 12.2302L6.71008 13.9138L8.05869 17.0068Z" fill="#146A8A"/>
<path d="M21.2113 33.4351V38.5372H15.2539L17.8071 33.4351H21.2113Z" fill="#084B63"/>
<path d="M17.8063 33.4351H13.1016V38.5372H17.8063V33.4351Z" fill="#146A8A"/>
<path d="M27.1326 14.4185L20.4611 12.0977L20.1309 13.1291L26.1317 18.1649L28.1037 23.9402L29.5437 23.7275V17.8075C29.5437 16.4049 28.4586 14.8798 27.1326 14.4185Z" fill="#419EBE"/>
<path d="M28.1038 18.5157V23.9404L25.2247 24.366V19.9327C25.2247 19.2315 24.7327 18.3608 24.1311 17.9992L19.4707 15.1932L20.1311 13.1294L26.1319 15.612C27.217 16.0399 28.1038 17.3472 28.1038 18.5157Z" fill="#62B3CD"/>
<path d="M29.5439 25.0043V36.835L26.1396 37.686V24.1533L29.5439 25.0043Z" fill="#82C8DB"/>
<path d="M26.9895 24.3662H19.5078V37.6862H26.9895V24.3662Z" fill="#A3DDE9"/>
<path d="M3.16707 36.8354C1.77051 36.8354 0.637695 37.9665 0.637695 39.3622H29.5432V36.8354H3.16707Z" fill="#084B63"/>
<path d="M10.2262 23.728C9.87367 23.728 9.58789 24.0137 9.58789 24.3663C9.58789 24.7189 9.87367 25.0046 10.2262 25.0046H29.5429V23.728H10.2262Z" fill="#06384A"/>
<path d="M27.8896 27.2407V34.3795C29.8386 34.3539 31.4156 32.7624 31.4156 30.8101C31.4156 28.8578 29.8386 27.2662 27.8896 27.2407Z" fill="#084B63"/>
<path d="M27.8896 27.2411C28.8998 27.2905 29.7134 28.8726 29.7134 30.8105C29.7134 32.7484 28.8998 34.3305 27.8896 34.3798C27.8734 34.3807 27.8572 34.3807 27.8411 34.3807C25.87 34.3807 24.2666 32.779 24.2666 30.8105C24.2666 28.842 25.87 27.2402 27.8411 27.2402C27.8572 27.2402 27.8734 27.2402 27.8896 27.2411Z" fill="#146A8A"/>
<path d="M20.0628 10.0758L17.1437 7.15926C16.519 6.90395 15.8348 6.7627 15.1182 6.7627V17.4342C18.0679 17.4342 20.4603 15.0453 20.4603 12.098C20.4603 11.3821 20.319 10.6996 20.0628 10.0758Z" fill="#82C8DB"/>
<path d="M15.1194 6.7627C12.1688 6.7627 9.77734 9.1516 9.77734 12.098C9.77734 15.0453 12.1688 17.4342 15.1194 17.4342C16.6598 17.4342 17.9083 15.0453 17.9083 12.098C17.9083 9.1516 16.6598 6.7627 15.1194 6.7627Z" fill="#A3DDE9"/>
<path d="M32.0541 30.8103C32.0541 29.3543 31.31 28.0688 30.1818 27.3129V17.8072C30.1818 16.1227 28.9344 14.3693 27.3419 13.8157L21.08 11.6378C21.0437 11.1603 20.9507 10.6928 20.8021 10.2397L25.3196 5.72756L25.3197 5.72748L27.0434 4.00576C27.1633 3.88599 27.2307 3.72357 27.2307 3.55412C27.2307 3.38474 27.1633 3.22232 27.0434 3.10248L24.1243 0.186621C23.875 -0.062207 23.4713 -0.062207 23.2221 0.186621L16.9801 6.42115C16.3814 6.22506 15.7575 6.1242 15.1189 6.1242C11.8214 6.1242 9.13867 8.80404 9.13867 12.0981C9.13867 12.1204 9.14015 12.1425 9.14039 12.1647L6.45765 13.3315C6.30234 13.3991 6.18023 13.5257 6.11828 13.6833C6.05625 13.8409 6.05945 14.0167 6.12711 14.1719L7.47414 17.2616C7.57882 17.5017 7.81336 17.645 8.05961 17.645C8.14461 17.645 8.23101 17.6279 8.3139 17.5919L11.0005 16.4233C11.5192 16.9165 12.125 17.3189 12.7938 17.602V20.5228C12.7938 20.8754 13.0796 21.1611 13.4321 21.1611H16.806C17.1585 21.1611 17.4443 20.8754 17.4443 20.5228V17.602C18.2843 17.2466 19.0255 16.7036 19.618 16.0274L23.8021 18.5459C24.2126 18.7929 24.5863 19.4538 24.5863 19.9323V21.8161C24.5863 22.1687 24.8721 22.4544 25.2246 22.4544C25.5771 22.4544 25.8629 22.1687 25.8629 21.8161V19.9323C25.8629 18.9998 25.2599 17.9336 24.4603 17.4522L20.3546 14.9809C20.6936 14.369 20.9282 13.6919 21.0344 12.9734L26.9226 15.0213C27.9973 15.3951 28.9052 16.6708 28.9052 17.8071V23.7279H10.2268C9.87429 23.7279 9.58851 24.0136 9.58851 24.3661C9.58851 24.7187 9.87429 25.0044 10.2268 25.0044H18.8705V32.7964H13.1016C12.7491 32.7964 12.4633 33.0821 12.4633 33.4347V36.1966H3.16781C1.42109 36.1966 0 37.6164 0 39.3615C0 39.7141 0.285781 39.9998 0.638281 39.9998H29.5435C29.896 39.9998 30.1818 39.7141 30.1818 39.3615V34.3075C31.3098 33.5517 32.0541 32.2663 32.0541 30.8103ZM21.9487 3.26271L23.9648 5.27631L20.0634 9.1731L18.0475 7.15951L21.9487 3.26271ZM23.6732 1.54037L25.6893 3.55396L24.8682 4.37412L22.8522 2.36053L23.6732 1.54037ZM7.5525 14.2476L9.3032 13.4861C9.46922 14.1802 9.75586 14.8279 10.1413 15.4049L8.38929 16.167L7.5525 14.2476ZM16.1675 19.8846H14.0702V17.9783C14.411 18.0389 14.7609 18.0722 15.1188 18.0722C15.4767 18.0722 15.8267 18.0389 16.1675 17.9783V19.8846ZM15.1188 16.7955C12.5252 16.7955 10.4152 14.6883 10.4152 12.0982C10.4152 9.5081 12.5252 7.40091 15.1188 7.40091C15.6946 7.40091 16.2551 7.50302 16.7867 7.70459L19.5188 10.4334C19.7205 10.9641 19.8226 11.5236 19.8226 12.0982C19.8226 14.6883 17.7124 16.7955 15.1188 16.7955ZM13.7398 34.0732H18.8705V36.1968H13.7398V34.0732ZM28.9051 38.7234H1.38781C1.65047 37.9953 2.3493 37.4733 3.16789 37.4733H26.9904C27.3429 37.4733 27.6287 37.1876 27.6287 36.835C27.6287 36.4825 27.3429 36.1968 26.9904 36.1968H20.1471V25.0046H28.9052V26.7379C28.5652 26.6493 28.2088 26.6017 27.8414 26.6017C25.5185 26.6017 23.6287 28.4897 23.6287 30.8102C23.6287 33.1307 25.5185 35.0187 27.8414 35.0187C28.2088 35.0187 28.5652 34.9712 28.9052 34.8825V38.7234H28.9051ZM29.2426 33.3862C29.2405 33.3873 29.2383 33.3885 29.2362 33.3897C28.821 33.6145 28.3458 33.7423 27.8412 33.7423C26.2223 33.7423 24.9051 32.4271 24.9051 30.8104C24.9051 29.1936 26.2223 27.8784 27.8412 27.8784C28.3461 27.8784 28.8216 28.0063 29.237 28.2314C29.2386 28.2323 29.2401 28.2332 29.2417 28.234C30.1558 28.7314 30.7775 29.6997 30.7775 30.8104C30.7775 31.9206 30.1562 32.8886 29.2426 33.3862Z" fill="black"/>
</svg>