<svg width="121" height="120" viewBox="0 0 121 120" fill="none" xmlns="http://www.w3.org/2000/svg">
<path d="M70.3628 15.6162V20.5477" stroke="#B8B9BA" stroke-width="2" stroke-miterlimit="10" stroke-linecap="round"/>
<path d="M72.829 18.082H67.8975" stroke="#B8B9BA" stroke-width="2" stroke-miterlimit="10" stroke-linecap="round"/>
<path d="M84.722 32.7452C85.6298 32.7452 86.3658 32.0092 86.3658 31.1014C86.3658 30.1935 85.6298 29.4575 84.722 29.4575C83.8141 29.4575 83.0781 30.1935 83.0781 31.1014C83.0781 32.0092 83.8141 32.7452 84.722 32.7452Z" stroke="#B8B9BA" stroke-width="1.6" stroke-miterlimit="10" stroke-linecap="round"/>
<path d="M83.4069 20.5808C84.1332 20.5808 84.7219 19.992 84.7219 19.2658C84.7219 18.5395 84.1332 17.9507 83.4069 17.9507C82.6806 17.9507 82.0918 18.5395 82.0918 19.2658C82.0918 19.992 82.6806 20.5808 83.4069 20.5808Z" fill="#B8B9BA"/>
<path d="M19.9302 66.4108L21.8699 65.3998C21.8805 65.3935 21.8928 65.3903 21.9051 65.3907C21.9175 65.391 21.9296 65.3948 21.9399 65.4017C21.9502 65.4085 21.9583 65.4182 21.9634 65.4295C21.9685 65.4408 21.9702 65.4533 21.9685 65.4656L21.6069 67.5943L23.2507 69.1971L20.9822 69.5258L19.963 71.5806L18.9439 69.5258L16.8069 69.2135C16.7966 69.2078 16.788 69.1995 16.7821 69.1894C16.7761 69.1793 16.7729 69.1677 16.7729 69.156C16.7729 69.1442 16.7761 69.1327 16.7821 69.1226C16.788 69.1125 16.7966 69.1041 16.8069 69.0984L18.3521 67.5861L17.9 65.3423L19.9302 66.4108Z" fill="#EA9080"/>
<path d="M17.2096 59.3753C17.9359 59.3753 18.5247 58.7865 18.5247 58.0602C18.5247 57.3339 17.9359 56.7451 17.2096 56.7451C16.4833 56.7451 15.8945 57.3339 15.8945 58.0602C15.8945 58.7865 16.4833 59.3753 17.2096 59.3753Z" fill="#B8B9BA"/>
<path d="M10.6344 67.3645C11.3607 67.3645 11.9495 66.7757 11.9495 66.0494C11.9495 65.3231 11.3607 64.7344 10.6344 64.7344C9.90811 64.7344 9.31934 65.3231 9.31934 66.0494C9.31934 66.7757 9.90811 67.3645 10.6344 67.3645Z" fill="#B8B9BA"/>
<path d="M69.1549 88.0437C69.8812 88.0437 70.47 87.4549 70.47 86.7286C70.47 86.0023 69.8812 85.4136 69.1549 85.4136C68.4286 85.4136 67.8398 86.0023 67.8398 86.7286C67.8398 87.4549 68.4286 88.0437 69.1549 88.0437Z" fill="#B8B9BA"/>
<path d="M57.8701 90.8301L60.5002 93.4602" stroke="#B8B9BA" stroke-width="1.6" stroke-miterlimit="10" stroke-linecap="round"/>
<path d="M60.5002 90.8301L57.8701 93.4602" stroke="#B8B9BA" stroke-width="1.6" stroke-miterlimit="10" stroke-linecap="round"/>
<path d="M110.752 96.2877C110.737 97.9158 110.156 99.4879 109.108 100.734C109.166 100.594 109.223 100.455 109.265 100.307C111.221 97.7424 111.163 94.3151 109.141 92.3589C109.665 92.868 110.079 93.4796 110.356 94.1555C110.633 94.8314 110.768 95.5573 110.752 96.2877Z" fill="#EEB8A9"/>
<path d="M106.528 90.082L105.919 90.7642L104.588 93.0245L105.18 92.3259L107.645 94.4464C108.458 95.1535 109.046 96.0823 109.338 97.119C109.63 98.1556 109.613 99.2549 109.289 100.282C109.207 100.397 109.117 100.504 109.026 100.619L107.843 102.008C105.549 104.688 101.81 105.238 99.4755 103.233L97.0591 101.161L97.6509 100.463L104.826 92.0546L105.911 90.7889L106.528 90.082Z" fill="#EA9080"/>
<path d="M104.596 93.0494L105.927 90.7891L106.535 90.1069L108.919 92.1617L109.133 92.359C111.155 94.3152 111.212 97.7426 109.256 100.307C109.58 99.2798 109.597 98.1805 109.305 97.1439C109.013 96.1072 108.424 95.1784 107.612 94.4713L105.146 92.3508L104.596 93.0494Z" fill="#EEB8A9"/>
<path d="M104.826 92.0468L100.363 88.2084L99.7715 88.8989L101.087 86.6304L101.678 85.9399L106.503 90.0824L105.911 90.7728L104.826 92.0468Z" fill="#EEB8A9"/>
<path d="M92.793 96.3372L101.086 86.6304L99.771 88.8989L100.363 88.2085L104.826 92.0468L97.6258 100.48L97.034 101.178L92.2012 97.0276L92.793 96.3372Z" fill="#EA9080"/>
<path d="M88.1574 74.3261L101.678 85.9398L101.086 86.6385L100.001 87.9042L88.1081 79.7261C87.6925 79.4584 87.1956 79.3462 86.7053 79.4094C86.215 79.4726 85.7628 79.707 85.4286 80.0713C84.3437 81.1727 80.119 86.2686 79.9957 86.4083L78.6807 84.7645L79.8396 83.4083L80.6615 82.4056L85.3957 76.8659L85.9711 76.1837L87.4012 74.5398C87.4326 74.4721 87.4782 74.412 87.535 74.3636C87.5918 74.3151 87.6584 74.2796 87.7302 74.2593C87.802 74.239 87.8774 74.2344 87.9511 74.246C88.0248 74.2575 88.0952 74.2849 88.1574 74.3261Z" fill="#EEB8A9"/>
<path d="M100.001 87.8961L101.086 86.6303L92.7933 96.3372L92.2015 97.0276L78.6891 85.4139C78.6414 85.3665 78.6036 85.3102 78.5777 85.2481C78.5519 85.1861 78.5386 85.1195 78.5386 85.0523C78.5386 84.985 78.5519 84.9185 78.5777 84.8564C78.6036 84.7943 78.6414 84.738 78.6891 84.6906L80.0042 86.3345C80.1193 86.1947 84.3522 81.0906 85.4371 79.9975C85.7713 79.6332 86.2235 79.3987 86.7138 79.3355C87.2041 79.2724 87.7009 79.3846 88.1165 79.6523L100.001 87.8961Z" fill="#EA9080"/>
<path d="M78.689 69.8794L86.0123 76.1095" stroke="#515F76" stroke-width="2.4" stroke-miterlimit="10"/>
<path d="M79.6507 83.178L72.0562 76.7178" stroke="#515F76" stroke-width="2.4" stroke-miterlimit="10"/>
<path d="M106.528 90.0822L108.911 92.137L109.125 92.3343C111.147 94.2905 111.204 97.7179 109.248 100.282C109.166 100.397 109.075 100.504 108.985 100.619L107.801 102.008C105.508 104.688 101.769 105.238 99.4344 103.233L97.0179 101.162L92.1933 97.0521L78.6891 85.4138C78.6414 85.3664 78.6036 85.31 78.5777 85.248C78.5519 85.1859 78.5386 85.1193 78.5386 85.0521C78.5386 84.9849 78.5519 84.9183 78.5777 84.8562C78.6036 84.7942 78.6414 84.7378 78.6891 84.6905L79.848 83.3343L80.67 82.3316L85.4042 76.7918L85.9796 76.1096L87.4097 74.4658C87.4914 74.3583 87.6119 74.2869 87.7455 74.2669C87.8791 74.247 88.0152 74.28 88.1248 74.359L101.645 85.9727L106.528 90.0822Z" stroke="#515F76" stroke-width="2.4" stroke-miterlimit="10"/>
<path d="M92.793 96.3372L101.086 86.6304" stroke="#515F76" stroke-width="2.4" stroke-miterlimit="10"/>
<path d="M97.626 100.479L104.826 92.0464L105.911 90.7725" stroke="#515F76" stroke-width="2.4" stroke-miterlimit="10"/>
<path d="M71.8341 76.4383C65.922 80.7938 58.5869 82.7642 51.2881 81.9577C43.9893 81.1511 37.2615 77.6266 32.443 72.0853C27.6246 66.5439 25.0686 59.3918 25.2835 52.0517C25.4984 44.7116 28.4685 37.7213 33.6029 32.4714C38.7373 27.2215 45.6598 24.0967 52.9933 23.7185C60.3268 23.3403 67.534 25.7366 73.1811 30.4305C78.8283 35.1245 82.5016 41.7722 83.4703 49.0513C84.4391 56.3304 82.6323 63.7074 78.4094 69.715C76.5919 72.2938 74.3718 74.5639 71.8341 76.4383Z" fill="white" stroke="#515F76" stroke-width="2.4" stroke-miterlimit="10"/>
<path d="M56.7355 31.9316C61.9233 32.6145 66.6868 35.1574 70.1411 39.0878C73.5953 43.0182 75.5053 48.0689 75.5163 53.3014C75.5202 55.9403 75.0353 58.557 74.0862 61.0192V61.0685C72.6164 64.598 70.2162 67.6624 67.1415 69.9349C64.0669 72.2075 60.4331 73.6029 56.6277 73.9724C52.8223 74.3419 48.988 73.6717 45.5336 72.0332C42.0792 70.3946 39.1342 67.8493 37.0128 64.6685C34.8914 61.4877 33.6731 57.7908 33.4877 53.972C33.3024 50.1532 34.157 46.3557 35.9604 42.9844C37.7638 39.6132 40.4484 36.7946 43.7279 34.8292C47.0073 32.8639 50.7588 31.8255 54.5821 31.8247C55.2725 31.8247 55.9547 31.8247 56.6286 31.9151L56.7355 31.9316Z" fill="#A8CBEB"/>
</svg>