<svg width="121" height="120" viewBox="0 0 121 120" fill="none" xmlns="http://www.w3.org/2000/svg">
<g clip-path="url(#clip0)">
<path d="M63.1057 30.772V39.1724H76.4407C80.3133 39.1724 82.2289 41.4353 81.8499 44.3952L79.2579 64.626C79.0721 66.077 77.9815 67.2852 76.4236 67.2852H53.1101H41.4471V39.1727H53.1101V25.7746H58.1084C60.8569 25.7746 63.1057 28.0232 63.1057 30.772ZM60.5004 3.87109L21.8773 13.8677C21.8773 25.0548 13.7175 34.3328 3.02441 36.0796C11.8053 63.7675 35.2461 96.0395 60.5004 116.129C85.7539 96.0393 109.196 63.7677 117.976 36.0794C107.283 34.3326 99.1226 25.0546 99.1226 13.8674L60.5004 3.87109Z" fill="#A8CBEB"/>
<path d="M76.4405 39.1727H63.1055V30.7722C63.1055 28.023 60.8569 25.7744 58.1077 25.7744H53.1094V39.1725V67.2855H76.4229C77.9808 67.2855 79.0713 66.0771 79.2572 64.6263L81.8491 44.3955C82.2281 41.4356 80.313 39.1727 76.4405 39.1727Z" fill="#FFCD85"/>
<path d="M53.1083 39.1733H41.4463V67.2857H53.1083V39.1733Z" fill="#565164"/>
<path d="M120.126 34.7579C119.743 34.133 119.106 33.7062 118.383 33.5879C108.685 32.004 101.647 23.7099 101.647 13.8671C101.647 12.7166 100.869 11.7116 99.7552 11.4235L61.1325 1.42719C60.7172 1.31984 60.2827 1.31984 59.8674 1.42719L21.2445 11.4238C20.1307 11.712 19.3528 12.7168 19.3528 13.8673C19.3528 23.7102 12.3146 32.0042 2.61729 33.5881C1.89378 33.7065 1.25721 34.1333 0.873542 34.7581C0.48987 35.3832 0.396354 36.1438 0.618073 36.8427C9.46573 64.7415 32.8992 97.3981 58.9287 118.105C59.3885 118.471 59.9442 118.653 60.5002 118.653C61.0561 118.653 61.6116 118.47 62.0717 118.105C88.1021 97.3967 111.535 64.7401 120.382 36.8424C120.603 36.1435 120.51 35.3827 120.126 34.7579ZM60.4999 112.886C36.6317 93.3683 15.2637 63.7878 6.29674 37.9259C10.9629 36.5816 15.1777 33.886 18.3762 30.1571C21.8318 26.1287 23.9063 21.1074 24.3232 15.8417L60.4999 6.4782L96.676 15.8415C97.0927 21.1067 99.1674 26.1284 102.623 30.1569C105.822 33.8855 110.036 36.5813 114.703 37.9257C105.736 63.7869 84.3692 93.3673 60.4999 112.886Z" fill="#515F76"/>
<path d="M41.3131 21.6868C41.5264 21.6868 41.743 21.6599 41.9588 21.6027L42.0303 21.5839C43.3782 21.2284 44.1828 19.8472 43.827 18.4991C43.4717 17.151 42.0887 16.3466 40.7424 16.7024L40.6709 16.7211C39.3231 17.0767 38.5184 18.4578 38.8742 19.806C39.1726 20.9382 40.1947 21.6868 41.3131 21.6868Z" fill="#515F76"/>
<path d="M62.1477 98.1178L62.0896 98.1727L63.8095 100.02L62.0891 98.1732C61.0689 99.1233 61.012 100.721 61.9624 101.741C62.4597 102.274 63.1338 102.544 63.8099 102.544C64.4259 102.544 65.0435 102.32 65.53 101.867L65.5886 101.812C66.6088 100.861 66.6658 99.2642 65.7154 98.2442C64.7648 97.2239 63.168 97.1674 62.1477 98.1178Z" fill="#515F76"/>
<path d="M34.1048 18.4197L30.2433 19.4198C29.3513 19.6506 28.6559 20.3498 28.4292 21.2427C26.6505 28.2548 22.9385 33.5249 16.3929 38.3305C15.2691 39.1558 15.027 40.7355 15.852 41.8591C16.3465 42.5329 17.1122 42.8896 17.8884 42.8894C18.4071 42.8894 18.9305 42.73 19.3802 42.4C26.4832 37.1852 30.709 31.4441 32.9234 23.9404L35.3698 23.3069C36.7195 22.9572 37.5302 21.5798 37.1805 20.2302C36.8318 18.8807 35.4525 18.07 34.1048 18.4197Z" fill="#515F76"/>
<path d="M83.6221 78.0952C82.5294 77.2285 80.9424 77.412 80.0755 78.5042C75.9964 83.6468 71.6617 88.5762 67.1924 93.1552C66.2188 94.1529 66.238 95.7509 67.2357 96.7247C67.7265 97.2038 68.3628 97.4426 68.9985 97.4426C69.6547 97.4426 70.3105 97.1881 70.805 96.6813C75.3948 91.9795 79.8446 86.9192 84.031 81.6415C84.8971 80.5496 84.714 78.9617 83.6221 78.0952Z" fill="#515F76"/>
<path d="M81.7607 64.9472L84.3529 44.7159C84.6243 42.5965 84.0644 40.6235 82.777 39.1606C81.7682 38.0145 79.8498 36.6483 76.4402 36.6483H65.6294V30.772C65.6294 26.6245 62.2551 23.25 58.1073 23.25H53.1091C51.715 23.25 50.5848 24.3802 50.5848 25.7742V36.6481H41.4461C40.052 36.6481 38.9219 37.7782 38.9219 39.1723V67.2849C38.9219 68.6789 40.052 69.8091 41.4461 69.8091H53.0992C53.1027 69.8091 53.1058 69.8095 53.1091 69.8095H76.4226C79.1547 69.81 81.3998 67.7649 81.7607 64.9472ZM43.9703 41.697H50.5848V64.7611H43.9703V41.697ZM55.6333 39.1727V28.2989H58.1073C59.4712 28.2989 60.5809 29.4087 60.5809 30.7725V39.173C60.5809 40.567 61.7111 41.6972 63.1052 41.6972H76.4402C77.6291 41.6972 78.5338 41.9813 78.9876 42.4966C79.312 42.8651 79.4324 43.3962 79.3455 44.0752L76.7533 64.3062C76.7474 64.3528 76.6872 64.762 76.4228 64.762H55.6335V39.1727H55.6333Z" fill="#515F76"/>
</g>
<defs>
<clipPath id="clip0">
<rect width="120" height="120" fill="white" transform="translate(0.5)"/>
</clipPath>
</defs>
</svg>