<svg width="49" height="48" viewBox="0 0 49 48" fill="none" xmlns="http://www.w3.org/2000/svg">
<rect x="0.5" width="48" height="48" rx="24" fill="#50ABF1"/>
<g clip-path="url(#clip0)">
<path d="M40.5 8H8.5V40H40.5V8Z" fill="#50ABF1"/>
<path d="M12.7396 31.7208C14.8693 33.0715 17.3956 33.8531 20.1036 33.8531C27.7115 33.8531 33.8788 27.6852 33.8788 20.078C33.8788 19.888 33.8748 19.6995 33.8675 19.5115C34.1426 19.295 35.8445 17.9309 36.2617 17.0539C36.2617 17.0539 34.8796 17.6283 33.527 17.7636C33.5243 17.7636 33.521 17.7642 33.5183 17.7642C33.5183 17.7642 33.521 17.7629 33.5256 17.7596C33.6503 17.6763 35.3928 16.4902 35.6287 15.0768C35.6287 15.0768 34.6511 15.5986 33.2824 16.0551C33.0558 16.1304 32.8186 16.2044 32.5741 16.273C31.6918 15.3314 30.4377 14.7437 29.0457 14.7437C26.3755 14.7437 24.2119 16.9067 24.2119 19.5748C24.2119 19.9513 24.2552 20.3178 24.3371 20.6696C23.964 20.6543 18.2818 20.3357 14.4163 15.6545C14.4163 15.6545 12.106 18.8084 15.793 22.0516C15.793 22.0516 14.6722 22.007 13.7052 21.4292C13.7052 21.4292 13.3501 25.2501 17.5255 26.2271C17.5255 26.2271 16.7039 26.5383 15.3932 26.3164C15.3932 26.3164 16.1262 29.4037 19.8359 29.6922C19.8359 29.6922 16.9024 32.3422 12.7383 31.7204L12.7396 31.7208Z" fill="white"/>
</g>
<defs>
<clipPath id="clip0">
<rect x="8.5" y="8" width="32" height="32" fill="white"/>
</clipPath>
</defs>
</svg>